<svg id="Group_18" data-name="Group 18" xmlns="http://www.w3.org/2000/svg" xmlns:xlink="http://www.w3.org/1999/xlink" width="55.474" height="66.786" viewBox="0 0 55.474 66.786">
  <defs>
    <clipPath id="clip-path">
      <rect id="Rectangle_7" data-name="Rectangle 7" width="55.474" height="66.786" fill="none"/>
    </clipPath>
  </defs>
  <path id="Path_12" data-name="Path 12" d="M30.3,2.412H24.927L21.4,3.327,19.646,6.466l-7.192.926h-6.1L4.107,8.909V16.22L6,18.014,9.8,60.5l.876,3.743,1.693,1.375,2.742,1.331H42.241l4.734-.379L49.631,64.3l.759-3.414,3.794-43.248,2.656-.379V12.55L56.08,8.909,54.563,7.391l-2.656-.759-11,.069-.84-2.538L38.029,2.412Z" transform="translate(-2.549 -1.497)" fill="#e6e6e6"/>
  <g id="Group_12" data-name="Group 12">
    <g id="Group_11" data-name="Group 11" clip-path="url(#clip-path)">
      <path id="Path_13" data-name="Path 13" d="M27.754,66.756c-4.52,0-9.04.015-13.56-.005a7.946,7.946,0,0,1-7-3.445A6.636,6.636,0,0,1,6.159,60q-.9-11.2-1.765-22.4-.769-9.781-1.53-19.564c-.043-.567-.238-.735-.8-.741C.216,17.278.005,17.038,0,15.2c0-1.675-.009-3.351,0-5.025C.029,6.483,2.3,4.2,5.975,4.185c3-.012,6.006-.021,9.008.012.683.007,1.038-.1,1.248-.867a4.789,4.789,0,0,1,4.5-3.311q6.969-.04,13.939,0A4.829,4.829,0,0,1,39.238,3.4a.974.974,0,0,0,1.124.8c3.034-.038,6.069-.025,9.1-.015a5.639,5.639,0,0,1,6,5.907c.022,1.833.012,3.667,0,5.5-.008,1.313-.393,1.744-1.688,1.7-.753-.026-1.018.163-1.078.954C52.11,25.933,51.48,33.617,50.862,41.3c-.506,6.3-.994,12.6-1.525,18.9A7.1,7.1,0,0,1,43.012,66.6c-3.183.335-6.379.09-9.568.145-1.9.033-3.793.006-5.689.006M27.8,17.312H23.724q-8.721,0-17.442.012c-.344,0-.917-.3-.846.556.516,6.231.991,12.466,1.486,18.7Q7.845,48.2,8.775,59.814a4.251,4.251,0,0,0,2.868,3.867,6.114,6.114,0,0,0,2.313.442q13.84,0,27.681,0c.063,0,.126,0,.189,0,2.91-.165,4.911-1.967,4.952-4.666.039-2.552.387-5.1.591-7.65q.713-8.926,1.418-17.852c.414-5.194.8-10.39,1.273-15.579.084-.929-.181-1.08-1.026-1.077-7.078.03-14.156.017-21.234.017m-.112-2.607q12.083,0,24.167.014c.724,0,1-.171.962-.94-.063-1.292,0-2.59-.022-3.885a2.928,2.928,0,0,0-3.11-3.073q-21.94-.013-43.88,0A2.961,2.961,0,0,0,2.619,9.938c-.034,1.231.05,2.468-.028,3.7-.058.9.278,1.093,1.12,1.09,7.992-.029,15.985-.017,23.977-.017M27.675,4.183c2.78,0,5.56,0,8.34-.007.2,0,.479.135.582-.14.087-.232-.1-.422-.26-.568a2.645,2.645,0,0,0-1.859-.8q-6.728.021-13.457,0a2.522,2.522,0,0,0-1.795.722c-.183.172-.433.374-.359.623.094.318.434.158.659.159,2.717.012,5.433.008,8.15.008" transform="translate(0 0)"/>
      <path id="Path_14" data-name="Path 14" d="M100.261,75.9q0,8.527,0,17.054c0,.285.011.57-.01.852a1.266,1.266,0,0,1-1.273,1.276,1.229,1.229,0,0,1-1.327-1.1,3.43,3.43,0,0,1-.05-.753q0-17.338,0-34.677a3.419,3.419,0,0,1,.075-.843,1.2,1.2,0,0,1,1.31-1,1.256,1.256,0,0,1,1.255,1.189,6.5,6.5,0,0,1,.019.852q0,8.574,0,17.149" transform="translate(-60.573 -35.194)"/>
      <path id="Path_15" data-name="Path 15" d="M41.6,75.9q0-8.716,0-17.432c0-1.195.6-1.845,1.507-1.668a1.214,1.214,0,0,1,1.069,1.05,6.75,6.75,0,0,1,.052,1.037q0,17.053,0,34.106a5.338,5.338,0,0,1-.1,1.22,1.166,1.166,0,0,1-1.242.955,1.22,1.22,0,0,1-1.244-1.083,5.175,5.175,0,0,1-.041-.944q0-8.621,0-17.243" transform="translate(-25.815 -35.233)"/>
      <path id="Path_16" data-name="Path 16" d="M69.591,75.9q0-8.622,0-17.245a4.347,4.347,0,0,1,.1-1.028,1.264,1.264,0,0,1,2.411-.05,3.368,3.368,0,0,1,.145.925q.011,17.435,0,34.868c0,1.232-.672,1.943-1.592,1.721-.872-.211-1.072-.865-1.071-1.662q.01-5.638,0-11.275V75.9" transform="translate(-43.189 -35.202)"/>
    </g>
  </g>
</svg>
