<svg id="Group_3" data-name="Group 3" xmlns="http://www.w3.org/2000/svg" xmlns:xlink="http://www.w3.org/1999/xlink" width="119.744" height="100.149" viewBox="0 0 119.744 100.149">
  <defs>
    <clipPath id="clip-path">
      <rect id="Rectangle_1" data-name="Rectangle 1" width="119.744" height="100.149" fill="none"/>
    </clipPath>
  </defs>
  <path id="Path_1" data-name="Path 1" d="M55.436,2.586,43.8,3.092l-12.295.5L15.87,7.154,6.4,11.213.223,16.14v4.707l3.819,6.688,1.537,3.252.364,3.164,74.783,56.64L114.4,30.741l3.676-4.87,1.777-3.763-.008-6.155-2.7-3.251-9.61-4.552-5.564-1.517L91.852,4.609,80.867,3.589l-11.4-1Z" transform="translate(-0.11 -1.278)" fill="#fff"/>
  <g id="Group_2" data-name="Group 2">
    <g id="Group_1" data-name="Group 1" clip-path="url(#clip-path)">
      <path id="Path_2" data-name="Path 2" d="M10.811,58.3a5.068,5.068,0,0,1,.712.181c8.451,3.747,17.433,5.344,26.511,6.562a211.466,211.466,0,0,0,32.288,1.6,173.594,173.594,0,0,0,37.568-4.427A61.953,61.953,0,0,0,118.651,58.6c.263-.117.545-.192.982-.343-.218,1.944-.414,3.771-.631,5.595-.812,6.811-1.578,13.628-2.464,20.429-.826,6.343-.95,12.816-2.564,19.011-3.109,11.938-10.951,19.3-22.853,22.415a101.721,101.721,0,0,1-24.871,3.23,94.118,94.118,0,0,1-29.078-3.846c-11.558-3.608-18.657-11.643-21.1-23.471-1.045-5.055-1.315-10.27-1.934-15.412Q12.91,76.051,11.692,65.9c-.3-2.5-.58-5-.881-7.6" transform="translate(-5.343 -28.79)" fill="#662d91"/>
      <path id="Path_3" data-name="Path 3" d="M60.734,29.634c-13.8.024-26.731-.864-39.482-3.559A58.451,58.451,0,0,1,4.927,20.526a15,15,0,0,1-3.505-2.673A4,4,0,0,1,1.5,11.815a22.783,22.783,0,0,1,8.676-5.027A106.64,106.64,0,0,1,33.929,1.558,208.441,208.441,0,0,1,65.845.1c13.575.442,27.084,1.551,40.2,5.469A34.474,34.474,0,0,1,116.7,10.389c4.111,2.991,4.117,5.923.035,8.937a33.254,33.254,0,0,1-10.414,4.739,137.691,137.691,0,0,1-30.969,5.084c-5.132.333-10.268.523-14.613.486M59.5,2.322A215.4,215.4,0,0,0,34.627,3.643a99.035,99.035,0,0,0-22.11,4.462A20.472,20.472,0,0,0,6.788,11c-3.122,2.353-3.177,4.971-.231,7.512A9.29,9.29,0,0,0,7.78,19.4a36.52,36.52,0,0,0,11.339,4.14,178.605,178.605,0,0,0,36,3.806,231.4,231.4,0,0,0,27.4-.992,121.792,121.792,0,0,0,22.114-3.843c3.318-.971,6.595-2.088,9.222-4.5,2.055-1.889,2.113-4.21.145-6.165a17.282,17.282,0,0,0-6.55-3.691A83.616,83.616,0,0,0,89.354,4.135,219.73,219.73,0,0,0,59.5,2.322" transform="translate(-0.042 0)" fill="#662d91"/>
      <path id="Path_4" data-name="Path 4" d="M.112,38.621C6.822,43.986,14.85,45.78,22.9,47.394c16.126,3.236,32.446,3.724,48.818,2.991a153.568,153.568,0,0,0,30.857-4.247c5.268-1.332,10.5-2.858,15.05-6.02.675-.469,1.3-1.006,2.025-1.568a5.308,5.308,0,0,1-1.682,5.1,24.374,24.374,0,0,1-8.217,4.586,102.913,102.913,0,0,1-23.484,5.256A218.448,218.448,0,0,1,47.408,54.7c-11.449-.634-22.838-1.831-33.858-5.275-3.781-1.181-7.525-2.464-10.743-4.909C.866,43.041-.4,41.29.112,38.621" transform="translate(0 -19.052)" fill="#662d91"/>
      <path id="Path_5" data-name="Path 5" d="M66.032,29.625a209.442,209.442,0,0,1-34.6-2.632A62.228,62.228,0,0,1,16.515,22.81a11.515,11.515,0,0,1-3.06-1.984c-1.369-1.24-1.342-2.406.05-3.612a20.467,20.467,0,0,1,7.544-3.7,104.14,104.14,0,0,1,19.311-3.72A232.053,232.053,0,0,1,73.544,8.562c11.508.305,22.955,1.279,34.181,4.011a31.3,31.3,0,0,1,9.72,3.792c2.887,1.856,2.872,3.513-.03,5.388a31.852,31.852,0,0,1-9.628,3.691c-9.136,2.342-18.477,3.245-27.861,3.793-4.627.27-9.26.365-13.895.388" transform="translate(-6.15 -4.175)" fill="#482d91"/>
    </g>
  </g>
</svg>
